<svg version="1.1" viewBox="0.0 0.0 960.0 540.0" fill="none" stroke="none" stroke-linecap="square" stroke-miterlimit="10" xmlns:xlink="http://www.w3.org/1999/xlink" xmlns="http://www.w3.org/2000/svg"><clipPath id="g11a952e67da_0_22.0"><path d="m0 0l960.0 0l0 540.0l-960.0 0l0 -540.0z" clip-rule="nonzero"/></clipPath><g clip-path="url(#g11a952e67da_0_22.0)"><path fill="#ffffff" d="m0 0l960.0 0l0 540.0l-960.0 0z" fill-rule="evenodd"/><path fill="#eeeeee" d="m480.0 -0.0131233595l480.0 0l0 540.0l-480.0 0z" fill-rule="evenodd"/><path fill="#000000" fill-opacity="0.0" d="m27.874016 129.4672l424.6929 0l0 155.62204l-424.6929 0z" fill-rule="evenodd"/><path fill="#000000" d="m184.89662 260.08923l0 -43.73436l6.671875 0l8.390625 23.34375q0.796875 2.265625 1.5625 4.5625q0.765625 2.296875 1.578125 4.5625l0.265625 0q0.796875 -2.265625 1.484375 -4.5625q0.703125 -2.296875 1.515625 -4.5625l8.265625 -23.34375l6.71875 0l0 43.73436l-5.1875 0l0 -24.062485q0 -2.9375 0.265625 -6.5q0.265625 -3.5625 0.46875 -6.4375l-0.265625 0l-3.46875 9.9375l-8.265625 22.65625l-3.671875 0l-8.265625 -22.65625l-3.46875 -9.9375l-0.265625 0q0.203125 2.875 0.4375 6.4375q0.234375 3.5625 0.234375 6.5l0 24.062485l-5.0 0zm55.990417 -24.468735l-2.0625 6.671875l13.125 0l-2.0625 -6.671875q-1.203125 -3.65625 -2.265625 -7.28125q-1.0625 -3.640625 -2.140625 -7.4375l-0.265625 0q-1.0 3.796875 -2.0625 7.4375q-1.0625 3.625 -2.265625 7.28125zm-13.328125 24.468735l14.796875 -43.73436l6.265625 0l14.79689 43.73436l-5.9375 0l-4.1250153 -13.32811l-15.9375 0l-4.203125 13.32811l-5.65625 0zm42.057938 0l0 -43.73436l13.65625 0q4.4687805 0 7.9375305 1.171875q3.46875 1.171875 5.4375 3.875q1.96875 2.6875 1.96875 7.21875q0 5.078125 -2.671875 8.171875q-2.671875 3.09375 -7.203125 4.234375l11.140625 19.062485l-6.265625 0l-10.5312805 -18.468735l-7.9375 0l0 18.468735l-5.53125 0zm5.53125 -22.999985l7.328125 0q5.1406555 0 7.8750305 -2.09375q2.734375 -2.109375 2.734375 -6.375q0 -4.328125 -2.734375 -6.0625q-2.734375 -1.734375 -7.8750305 -1.734375l-7.328125 0l0 16.265625z" fill-rule="nonzero"/><path fill="#000000" fill-opacity="0.0" d="m27.874016 294.2861l424.6929 0l0 129.66928l-424.6929 0z" fill-rule="evenodd"/><path fill="#ffffff" d="m119.465256 303.2861l241.51042 0l0 36.799988l-241.51042 0l0 -36.799988z" fill-rule="nonzero"/><path fill="#000000" fill-opacity="0.0" d="m119.465256 302.56024l241.51042 0l0 38.535034l-241.51042 0l0 -38.535034z" fill-rule="nonzero"/><path fill="#000000" d="m122.23088 332.72607l0 -20.109375l3.0625 0l3.859375 10.734375q0.375 1.03125 0.71875 2.09375q0.359375 1.0625 0.71875 2.09375l0.125 0q0.375 -1.03125 0.6875 -2.09375q0.328125 -1.0625 0.6875 -2.09375l3.8125 -10.734375l3.09375 0l0 20.109375l-2.390625 0l0 -11.0625q0 -1.359375 0.109375 -3.0q0.125 -1.640625 0.21875 -2.953125l-0.125 0l-1.59375 4.5625l-3.796875 10.4375l-1.6875 0l-3.796875 -10.4375l-1.59375 -4.5625l-0.125 0q0.09375 1.3125 0.203125 2.953125q0.109375 1.640625 0.109375 3.0l0 11.0625l-2.296875 0zm22.037155 0l0 -14.90625l2.515625 0l0 14.90625l-2.515625 0zm1.28125 -17.96875q-0.734375 0 -1.21875 -0.4375q-0.46875 -0.453125 -0.46875 -1.21875q0 -0.734375 0.46875 -1.1875q0.484375 -0.46875 1.21875 -0.46875q0.734375 0 1.203125 0.46875q0.484375 0.453125 0.484375 1.1875q0 0.765625 -0.484375 1.21875q-0.46875 0.4375 -1.203125 0.4375zm10.150833 18.34375q-1.59375 0 -3.03125 -0.59375q-1.4375 -0.609375 -2.515625 -1.46875l1.25 -1.6875q0.984375 0.765625 2.03125 1.28125q1.046875 0.5 2.359375 0.5q1.46875 0 2.203125 -0.6875q0.734375 -0.6875 0.734375 -1.640625q0 -0.765625 -0.5 -1.28125q-0.5 -0.53125 -1.296875 -0.875q-0.78125 -0.359375 -1.59375 -0.671875q-1.046875 -0.390625 -2.0625 -0.890625q-1.015625 -0.515625 -1.65625 -1.328125q-0.640625 -0.8125 -0.640625 -2.0625q0 -1.8125 1.359375 -3.015625q1.375 -1.21875 3.796875 -1.21875q1.375 0 2.5625 0.5q1.203125 0.484375 2.0625 1.1875l-1.234375 1.59375q-0.765625 -0.578125 -1.59375 -0.953125q-0.828125 -0.375 -1.796875 -0.375q-1.421875 0 -2.078125 0.65625q-0.65625 0.640625 -0.65625 1.5q0 0.703125 0.453125 1.15625q0.46875 0.4375 1.203125 0.765625q0.734375 0.3125 1.5625 0.65625q1.078125 0.390625 2.109375 0.90625q1.046875 0.5 1.734375 1.34375q0.6875 0.84375 0.6875 2.25q0 1.203125 -0.625 2.21875q-0.625 1.0 -1.84375 1.625q-1.203125 0.609375 -2.984375 0.609375zm12.845001 0q-1.59375 0 -3.03125 -0.59375q-1.4375 -0.609375 -2.515625 -1.46875l1.25 -1.6875q0.984375 0.765625 2.03125 1.28125q1.046875 0.5 2.359375 0.5q1.46875 0 2.203125 -0.6875q0.734375 -0.6875 0.734375 -1.640625q0 -0.765625 -0.5 -1.28125q-0.5 -0.53125 -1.296875 -0.875q-0.78125 -0.359375 -1.59375 -0.671875q-1.046875 -0.390625 -2.0625 -0.890625q-1.015625 -0.515625 -1.65625 -1.328125q-0.640625 -0.8125 -0.640625 -2.0625q0 -1.8125 1.359375 -3.015625q1.375 -1.21875 3.796875 -1.21875q1.375 0 2.5625 0.5q1.203125 0.484375 2.0625 1.1875l-1.234375 1.59375q-0.765625 -0.578125 -1.59375 -0.953125q-0.828125 -0.375 -1.796875 -0.375q-1.421875 0 -2.078125 0.65625q-0.65625 0.640625 -0.65625 1.5q0 0.703125 0.453125 1.15625q0.46875 0.4375 1.203125 0.765625q0.734375 0.3125 1.5625 0.65625q1.078125 0.390625 2.109375 0.90625q1.046875 0.5 1.734375 1.34375q0.6875 0.84375 0.6875 2.25q0 1.203125 -0.625 2.21875q-0.625 1.0 -1.84375 1.625q-1.203125 0.609375 -2.984375 0.609375zm8.954376 -0.375l0 -14.90625l2.515625 0l0 14.90625l-2.515625 0zm1.28125 -17.96875q-0.734375 0 -1.21875 -0.4375q-0.46875 -0.453125 -0.46875 -1.21875q0 -0.734375 0.46875 -1.1875q0.484375 -0.46875 1.21875 -0.46875q0.734375 0 1.203125 0.46875q0.484375 0.453125 0.484375 1.1875q0 0.765625 -0.484375 1.21875q-0.46875 0.4375 -1.203125 0.4375zm6.260193 17.96875l0 -14.90625l2.078125 0l0.21875 2.15625l0.09375 0q1.078125 -1.078125 2.265625 -1.796875q1.203125 -0.71875 2.734375 -0.71875q2.359375 0 3.4375 1.484375q1.09375 1.484375 1.09375 4.34375l0 9.4375l-2.515625 0l0 -9.109375q0 -2.078125 -0.671875 -3.03125q-0.671875 -0.953125 -2.140625 -0.953125q-1.140625 0 -2.046875 0.59375q-0.90625 0.578125 -2.03125 1.703125l0 10.796875l-2.515625 0zm21.800262 6.859375q-2.734375 0 -4.453125 -1.046875q-1.71875 -1.03125 -1.71875 -2.96875q0 -0.9375 0.578125 -1.8125q0.59375 -0.875 1.609375 -1.546875l0 -0.125q-0.5625 -0.34375 -0.953125 -0.953125q-0.375 -0.609375 -0.375 -1.46875q0 -0.953125 0.515625 -1.65625q0.53125 -0.703125 1.109375 -1.109375l0 -0.125q-0.734375 -0.609375 -1.328125 -1.640625q-0.59375 -1.046875 -0.59375 -2.375q0 -1.625 0.765625 -2.8125q0.765625 -1.203125 2.046875 -1.84375q1.296875 -0.640625 2.796875 -0.640625q0.609375 0 1.15625 0.109375q0.5625 0.109375 0.953125 0.25l5.1875 0l0 1.9375l-3.078125 0q0.53125 0.484375 0.875 1.296875q0.359375 0.8125 0.359375 1.765625q0 1.59375 -0.734375 2.765625q-0.734375 1.15625 -1.96875 1.796875q-1.21875 0.625 -2.75 0.625q-1.203125 0 -2.25 -0.53125q-0.390625 0.34375 -0.671875 0.765625q-0.265625 0.40625 -0.265625 1.015625q0 0.703125 0.5625 1.171875q0.5625 0.453125 2.0625 0.453125l2.890625 0q2.609375 0 3.90625 0.84375q1.296875 0.84375 1.296875 2.71875q0 1.375 -0.921875 2.53125q-0.90625 1.171875 -2.59375 1.890625q-1.6875 0.71875 -4.015625 0.71875zm0 -13.265625q1.28125 0 2.21875 -0.96875q0.9375 -0.96875 0.9375 -2.59375q0 -1.625 -0.921875 -2.53125q-0.921875 -0.921875 -2.234375 -0.921875q-1.328125 0 -2.25 0.921875q-0.90625 0.90625 -0.90625 2.53125q0 1.625 0.921875 2.59375q0.9375 0.96875 2.234375 0.96875zm0.359375 11.53125q2.15625 0 3.4375 -0.9375q1.28125 -0.9375 1.28125 -2.109375q0 -1.03125 -0.78125 -1.4375q-0.78125 -0.390625 -2.21875 -0.390625l-2.578125 0q-0.421875 0 -0.9375 -0.0625q-0.5 -0.0625 -0.984375 -0.1875q-0.796875 0.578125 -1.171875 1.21875q-0.359375 0.65625 -0.359375 1.296875q0 1.1875 1.140625 1.890625q1.15625 0.71875 3.171875 0.71875zm19.628937 -4.75q-1.875 0 -3.125 -1.125q-1.234375 -1.125 -1.234375 -3.109375q0 -2.453125 2.1875 -3.75q2.203125 -1.3125 6.953125 -1.828125q0 -0.953125 -0.265625 -1.8125q-0.265625 -0.859375 -0.921875 -1.390625q-0.65625 -0.546875 -1.875 -0.546875q-1.296875 0 -2.4375 0.5q-1.125 0.484375 -2.015625 1.09375l-0.984375 -1.734375q1.046875 -0.6875 2.5625 -1.3125q1.515625 -0.625 3.296875 -0.625q2.734375 0 3.953125 1.671875q1.234375 1.671875 1.234375 4.453125l0 9.140625l-2.09375 0l-0.21875 -1.78125l-0.078125 0q-1.046875 0.859375 -2.296875 1.515625q-1.234375 0.640625 -2.640625 0.640625zm0.734375 -2.03125q1.0625 0 2.015625 -0.515625q0.953125 -0.53125 2.03125 -1.46875l0 -4.140625q-3.71875 0.453125 -5.203125 1.375q-1.484375 0.921875 -1.484375 2.359375q0 1.25 0.765625 1.828125q0.765625 0.5625 1.875 0.5625zm15.537079 2.03125q-2.390625 0 -3.328125 -1.375q-0.9375 -1.390625 -0.9375 -3.59375l0 -8.25l-2.203125 0l0 -1.90625l2.328125 -0.15625l0.3125 -4.15625l2.109375 0l0 4.15625l4.015625 0l0 2.0625l-4.015625 0l0 8.28125q0 1.375 0.5 2.125q0.515625 0.75 1.796875 0.75q0.40625 0 0.859375 -0.140625q0.46875 -0.140625 0.828125 -0.25l0.5 1.890625q-0.625 0.21875 -1.34375 0.390625q-0.71875 0.171875 -1.421875 0.171875zm12.055634 -0.375l0 -20.109375l6.2812653 0q2.046875 0 3.640625 0.546875q1.59375 0.53125 2.5 1.78125q0.90625 1.234375 0.90625 3.3125q0 2.328125 -1.234375 3.765625q-1.21875 1.421875 -3.296875 1.9375l5.109375 8.765625l-2.875 0l-4.84375 -8.484375l-3.65625 0l0 8.484375l-2.5312653 0zm2.5312653 -10.578125l3.375 0q2.359375 0 3.609375 -0.953125q1.265625 -0.96875 1.265625 -2.9375q0 -2.0 -1.265625 -2.796875q-1.25 -0.796875 -3.609375 -0.796875l-3.375 0l0 7.484375zm17.97702 10.953125q-1.875 0 -3.125 -1.125q-1.234375 -1.125 -1.234375 -3.109375q0 -2.453125 2.1875 -3.75q2.203125 -1.3125 6.953125 -1.828125q0 -0.953125 -0.265625 -1.8125q-0.265625 -0.859375 -0.921875 -1.390625q-0.65625 -0.546875 -1.875 -0.546875q-1.296875 0 -2.4375 0.5q-1.125 0.484375 -2.015625 1.09375l-0.984375 -1.734375q1.046875 -0.6875 2.5625 -1.3125q1.515625 -0.625 3.296875 -0.625q2.734375 0 3.953125 1.671875q1.234375 1.671875 1.234375 4.453125l0 9.140625l-2.09375 0l-0.21875 -1.78125l-0.078125 0q-1.046875 0.859375 -2.296875 1.515625q-1.234375 0.640625 -2.640625 0.640625zm0.734375 -2.03125q1.0625 0 2.015625 -0.515625q0.953125 -0.53125 2.03125 -1.46875l0 -4.140625q-3.71875 0.453125 -5.203125 1.375q-1.484375 0.921875 -1.484375 2.359375q0 1.25 0.765625 1.828125q0.765625 0.5625 1.875 0.5625zm11.278931 1.65625l0 -14.90625l2.078125 0l0.21875 2.15625l0.09375 0q1.078125 -1.078125 2.265625 -1.796875q1.203125 -0.71875 2.734375 -0.71875q2.359375 0 3.4375 1.484375q1.09375 1.484375 1.09375 4.34375l0 9.4375l-2.515625 0l0 -9.109375q0 -2.078125 -0.671875 -3.03125q-0.671875 -0.953125 -2.140625 -0.953125q-1.140625 0 -2.046875 0.59375q-0.90625 0.578125 -2.03125 1.703125l0 10.796875l-2.515625 0zm21.862762 0.375q-2.796875 0 -4.484375 -2.03125q-1.6875 -2.046875 -1.6875 -5.765625q0 -2.421875 0.90625 -4.171875q0.90625 -1.765625 2.390625 -2.71875q1.484375 -0.953125 3.171875 -0.953125q1.296875 0 2.234375 0.46875q0.953125 0.453125 1.9375 1.25l-0.125 -2.546875l0 -5.734375l2.546875 0l0 21.828125l-2.078125 0l-0.21875 -1.75l-0.09375 0q-0.859375 0.859375 -2.03125 1.5q-1.15625 0.625 -2.46875 0.625zm0.546875 -2.125q1.953125 0 3.796875 -2.046875l0 -7.796875q-0.953125 -0.859375 -1.828125 -1.203125q-0.859375 -0.359375 -1.78125 -0.359375q-1.203125 0 -2.171875 0.734375q-0.953125 0.71875 -1.546875 1.984375q-0.578125 1.265625 -0.578125 2.984375q0 2.671875 1.0625 4.1875q1.078125 1.515625 3.046875 1.515625zm17.170502 2.125q-1.8125 0 -3.390625 -0.921875q-1.578125 -0.921875 -2.546875 -2.671875q-0.96875 -1.75 -0.96875 -4.203125q0 -2.515625 0.96875 -4.25q0.96875 -1.75 2.546875 -2.671875q1.578125 -0.921875 3.390625 -0.921875q1.828125 0 3.390625 0.921875q1.578125 0.921875 2.53125 2.671875q0.96875 1.734375 0.96875 4.25q0 2.453125 -0.96875 4.203125q-0.953125 1.75 -2.53125 2.671875q-1.5625 0.921875 -3.390625 0.921875zm0 -2.09375q1.921875 0 3.09375 -1.578125q1.1875 -1.578125 1.1875 -4.125q0 -2.578125 -1.1875 -4.171875q-1.171875 -1.59375 -3.09375 -1.59375q-1.90625 0 -3.109375 1.59375q-1.1875 1.59375 -1.1875 4.171875q0 2.546875 1.1875 4.125q1.203125 1.578125 3.109375 1.578125zm10.818878 1.71875l0 -14.90625l2.078125 0l0.21875 2.15625l0.09375 0q0.984375 -1.078125 2.140625 -1.796875q1.171875 -0.71875 2.484375 -0.71875q1.71875 0 2.6875 0.75q0.96875 0.75 1.421875 2.09375q1.171875 -1.25 2.359375 -2.046875q1.203125 -0.796875 2.546875 -0.796875q2.296875 0 3.40625 1.484375q1.125 1.484375 1.125 4.34375l0 9.4375l-2.5 0l0 -9.109375q0 -2.078125 -0.6875 -3.03125q-0.671875 -0.953125 -2.078125 -0.953125q-1.65625 0 -3.734375 2.296875l0 10.796875l-2.515625 0l0 -9.109375q0 -2.078125 -0.6875 -3.03125q-0.671875 -0.953125 -2.109375 -0.953125q-1.65625 0 -3.734375 2.296875l0 10.796875l-2.515625 0z" fill-rule="nonzero"/><path fill="#000000" fill-opacity="0.0" d="m518.5827 76.01837l402.8346 0l0 387.937l-402.8346 0z" fill-rule="evenodd"/><path fill="#000000" d="m530.8171 208.42688l0 -23.609375l5.90625 0q5.46875 0 8.3125 3.046875q2.84375 3.03125 2.84375 8.640625q0 5.65625 -2.828125 8.796875q-2.8125 3.125 -8.1875 3.125l-6.046875 0zm3.0 -2.453125l2.6875 0q4.140625 0 6.203125 -2.5q2.078125 -2.5 2.078125 -6.96875q0 -4.453125 -2.078125 -6.84375q-2.0625 -2.40625 -6.203125 -2.40625l-2.6875 0l0 18.71875zm22.890015 2.890625q-2.203125 0 -3.65625 -1.3125q-1.453125 -1.328125 -1.453125 -3.65625q0 -2.890625 2.5625 -4.40625q2.578125 -1.53125 8.15625 -2.15625q0 -1.109375 -0.3125 -2.109375q-0.296875 -1.015625 -1.078125 -1.640625q-0.765625 -0.640625 -2.203125 -0.640625q-1.515625 0 -2.84375 0.578125q-1.328125 0.578125 -2.375 1.296875l-1.15625 -2.046875q1.234375 -0.796875 3.015625 -1.53125q1.78125 -0.734375 3.859375 -0.734375q3.203125 0 4.640625 1.96875q1.453125 1.953125 1.453125 5.21875l0 10.734375l-2.453125 0l-0.25 -2.09375l-0.109375 0q-1.21875 1.015625 -2.6875 1.78125q-1.453125 0.75 -3.109375 0.75zm0.859375 -2.375q1.265625 0 2.375 -0.609375q1.125 -0.625 2.375 -1.734375l0 -4.859375q-4.34375 0.53125 -6.09375 1.625q-1.75 1.078125 -1.75 2.765625q0 1.46875 0.890625 2.140625q0.90625 0.671875 2.203125 0.671875zm18.24939 2.375q-2.796875 0 -3.90625 -1.625q-1.09375 -1.625 -1.09375 -4.21875l0 -9.671875l-2.59375 0l0 -2.234375l2.734375 -0.1875l0.359375 -4.890625l2.484375 0l0 4.890625l4.71875 0l0 2.421875l-4.71875 0l0 9.71875q0 1.609375 0.59375 2.5q0.59375 0.875 2.109375 0.875q0.46875 0 1.0 -0.15625q0.546875 -0.15625 0.984375 -0.3125l0.578125 2.234375q-0.71875 0.25 -1.578125 0.453125q-0.84375 0.203125 -1.671875 0.203125zm9.943237 0q-2.203125 0 -3.65625 -1.3125q-1.453125 -1.328125 -1.453125 -3.65625q0 -2.890625 2.5625 -4.40625q2.578125 -1.53125 8.15625 -2.15625q0 -1.109375 -0.3125 -2.109375q-0.296875 -1.015625 -1.078125 -1.640625q-0.765625 -0.640625 -2.203125 -0.640625q-1.515625 0 -2.84375 0.578125q-1.328125 0.578125 -2.375 1.296875l-1.15625 -2.046875q1.234375 -0.796875 3.015625 -1.53125q1.78125 -0.734375 3.859375 -0.734375q3.203125 0 4.640625 1.96875q1.453125 1.953125 1.453125 5.21875l0 10.734375l-2.453125 0l-0.25 -2.09375l-0.109375 0q-1.21875 1.015625 -2.6875 1.78125q-1.453125 0.75 -3.109375 0.75zm0.859375 -2.375q1.265625 0 2.375 -0.609375q1.125 -0.625 2.375 -1.734375l0 -4.859375q-4.34375 0.53125 -6.09375 1.625q-1.75 1.078125 -1.75 2.765625q0 1.46875 0.890625 2.140625q0.90625 0.671875 2.203125 0.671875zm20.45337 1.9375l0 -17.5l2.953125 0l0 17.5l-2.953125 0zm1.515625 -21.09375q-0.859375 0 -1.421875 -0.515625q-0.5625 -0.53125 -0.5625 -1.4375q0 -0.859375 0.5625 -1.390625q0.5625 -0.546875 1.421875 -0.546875q0.859375 0 1.421875 0.546875q0.5625 0.53125 0.5625 1.390625q0 0.90625 -0.5625 1.4375q-0.5625 0.515625 -1.421875 0.515625zm11.918518 21.53125q-1.875 0 -3.578125 -0.703125q-1.6875 -0.703125 -2.9375 -1.71875l1.46875 -1.96875q1.15625 0.890625 2.375 1.484375q1.21875 0.59375 2.765625 0.59375q1.734375 0 2.59375 -0.796875q0.875 -0.8125 0.875 -1.9375q0 -0.90625 -0.59375 -1.515625q-0.59375 -0.609375 -1.515625 -1.015625q-0.921875 -0.421875 -1.890625 -0.78125q-1.21875 -0.46875 -2.421875 -1.0625q-1.1875 -0.59375 -1.9375 -1.546875q-0.75 -0.953125 -0.75 -2.421875q0 -2.125 1.59375 -3.546875q1.609375 -1.421875 4.453125 -1.421875q1.609375 0 3.015625 0.578125q1.40625 0.5625 2.421875 1.390625l-1.4375 1.875q-0.90625 -0.6875 -1.875 -1.109375q-0.96875 -0.4375 -2.125 -0.4375q-1.65625 0 -2.4375 0.765625q-0.765625 0.75 -0.765625 1.75q0 0.828125 0.53125 1.359375q0.546875 0.515625 1.40625 0.90625q0.859375 0.375 1.84375 0.765625q1.25 0.46875 2.46875 1.0625q1.234375 0.59375 2.046875 1.59375q0.8125 0.984375 0.8125 2.640625q0 1.390625 -0.75 2.578125q-0.734375 1.1875 -2.15625 1.921875q-1.421875 0.71875 -3.5 0.71875zm17.705872 -0.4375l0 -17.5l2.453125 0l0.25 2.53125l0.109375 0q1.140625 -1.265625 2.5 -2.109375q1.375 -0.84375 2.9375 -0.84375q2.015625 0 3.140625 0.890625q1.140625 0.875 1.671875 2.453125q1.375 -1.484375 2.78125 -2.40625q1.40625 -0.9375 2.984375 -0.9375q2.703125 0 4.015625 1.75q1.3125 1.734375 1.3125 5.078125l0 11.09375l-2.953125 0l0 -10.6875q0 -2.453125 -0.796875 -3.5625q-0.78125 -1.125 -2.4375 -1.125q-1.953125 0 -4.390625 2.703125l0 12.671875l-2.953125 0l0 -10.6875q0 -2.453125 -0.796875 -3.5625q-0.796875 -1.125 -2.484375 -1.125q-1.9375 0 -4.390625 2.703125l0 12.671875l-2.953125 0zm29.843994 0l0 -17.5l2.953125 0l0 17.5l-2.953125 0zm1.515625 -21.09375q-0.859375 0 -1.421875 -0.515625q-0.5625 -0.53125 -0.5625 -1.4375q0 -0.859375 0.5625 -1.390625q0.5625 -0.546875 1.421875 -0.546875q0.859375 0 1.421875 0.546875q0.5625 0.53125 0.5625 1.390625q0 0.90625 -0.5625 1.4375q-0.5625 0.515625 -1.421875 0.515625zm11.918518 21.53125q-1.875 0 -3.578125 -0.703125q-1.6875 -0.703125 -2.9375 -1.71875l1.46875 -1.96875q1.15625 0.890625 2.375 1.484375q1.21875 0.59375 2.765625 0.59375q1.734375 0 2.59375 -0.796875q0.875 -0.8125 0.875 -1.9375q0 -0.90625 -0.59375 -1.515625q-0.59375 -0.609375 -1.515625 -1.015625q-0.921875 -0.421875 -1.890625 -0.78125q-1.21875 -0.46875 -2.421875 -1.0625q-1.1875 -0.59375 -1.9375 -1.546875q-0.75 -0.953125 -0.75 -2.421875q0 -2.125 1.59375 -3.546875q1.609375 -1.421875 4.453125 -1.421875q1.609375 0 3.015625 0.578125q1.40625 0.5625 2.421875 1.390625l-1.4375 1.875q-0.90625 -0.6875 -1.875 -1.109375q-0.96875 -0.4375 -2.125 -0.4375q-1.65625 0 -2.4375 0.765625q-0.765625 0.75 -0.765625 1.75q0 0.828125 0.53125 1.359375q0.546875 0.515625 1.40625 0.90625q0.859375 0.375 1.84375 0.765625q1.25 0.46875 2.46875 1.0625q1.234375 0.59375 2.046875 1.59375q0.8125 0.984375 0.8125 2.640625q0 1.390625 -0.75 2.578125q-0.734375 1.1875 -2.15625 1.921875q-1.421875 0.71875 -3.5 0.71875zm15.083984 0q-1.875 0 -3.578125 -0.703125q-1.6875 -0.703125 -2.9375 -1.71875l1.46875 -1.96875q1.15625 0.890625 2.375 1.484375q1.21875 0.59375 2.765625 0.59375q1.734375 0 2.59375 -0.796875q0.875 -0.8125 0.875 -1.9375q0 -0.90625 -0.59375 -1.515625q-0.59375 -0.609375 -1.515625 -1.015625q-0.921875 -0.421875 -1.890625 -0.78125q-1.21875 -0.46875 -2.421875 -1.0625q-1.1875 -0.59375 -1.9375 -1.546875q-0.75 -0.953125 -0.75 -2.421875q0 -2.125 1.59375 -3.546875q1.609375 -1.421875 4.453125 -1.421875q1.609375 0 3.015625 0.578125q1.40625 0.5625 2.421875 1.390625l-1.4375 1.875q-0.90625 -0.6875 -1.875 -1.109375q-0.96875 -0.4375 -2.125 -0.4375q-1.65625 0 -2.4375 0.765625q-0.765625 0.75 -0.765625 1.75q0 0.828125 0.53125 1.359375q0.546875 0.515625 1.40625 0.90625q0.859375 0.375 1.84375 0.765625q1.25 0.46875 2.46875 1.0625q1.234375 0.59375 2.046875 1.59375q0.8125 0.984375 0.8125 2.640625q0 1.390625 -0.75 2.578125q-0.734375 1.1875 -2.15625 1.921875q-1.421875 0.71875 -3.5 0.71875zm10.505859 -0.4375l0 -17.5l2.953125 0l0 17.5l-2.953125 0zm1.515625 -21.09375q-0.859375 0 -1.421875 -0.515625q-0.5625 -0.53125 -0.5625 -1.4375q0 -0.859375 0.5625 -1.390625q0.5625 -0.546875 1.421875 -0.546875q0.859375 0 1.421875 0.546875q0.5625 0.53125 0.5625 1.390625q0 0.90625 -0.5625 1.4375q-0.5625 0.515625 -1.421875 0.515625zm7.340393 21.09375l0 -17.5l2.453125 0l0.25 2.53125l0.109375 0q1.25 -1.265625 2.65625 -2.109375q1.40625 -0.84375 3.203125 -0.84375q2.78125 0 4.046875 1.75q1.28125 1.734375 1.28125 5.078125l0 11.09375l-2.953125 0l0 -10.6875q0 -2.453125 -0.796875 -3.5625q-0.78125 -1.125 -2.515625 -1.125q-1.328125 0 -2.390625 0.6875q-1.0625 0.6875 -2.390625 2.015625l0 12.671875l-2.953125 0zm25.598267 8.0625q-3.203125 0 -5.21875 -1.234375q-2.015625 -1.21875 -2.015625 -3.484375q0 -1.109375 0.671875 -2.140625q0.6875 -1.015625 1.875 -1.8125l0 -0.140625q-0.640625 -0.40625 -1.09375 -1.125q-0.453125 -0.71875 -0.453125 -1.71875q0 -1.125 0.609375 -1.953125q0.625 -0.828125 1.296875 -1.296875l0 -0.140625q-0.859375 -0.71875 -1.5625 -1.9375q-0.703125 -1.234375 -0.703125 -2.78125q0 -1.90625 0.890625 -3.3125q0.90625 -1.40625 2.421875 -2.15625q1.515625 -0.75 3.28125 -0.75q0.71875 0 1.359375 0.125q0.65625 0.125 1.125 0.296875l6.078125 0l0 2.265625l-3.59375 0q0.609375 0.578125 1.015625 1.53125q0.421875 0.953125 0.421875 2.078125q0 1.875 -0.875 3.25q-0.859375 1.359375 -2.296875 2.09375q-1.4375 0.734375 -3.234375 0.734375q-1.40625 0 -2.625 -0.609375q-0.46875 0.390625 -0.796875 0.890625q-0.328125 0.484375 -0.328125 1.203125q0 0.828125 0.65625 1.375q0.671875 0.53125 2.4375 0.53125l3.390625 0q3.0625 0 4.59375 0.984375q1.53125 0.984375 1.53125 3.1875q0 1.625 -1.09375 2.984375q-1.078125 1.375 -3.0625 2.21875q-1.96875 0.84375 -4.703125 0.84375zm0 -15.59375q1.515625 0 2.609375 -1.125q1.09375 -1.140625 1.09375 -3.046875q0 -1.90625 -1.078125 -2.984375q-1.078125 -1.078125 -2.625 -1.078125q-1.546875 0 -2.640625 1.078125q-1.078125 1.078125 -1.078125 2.984375q0 1.90625 1.09375 3.046875q1.109375 1.125 2.625 1.125zm0.421875 13.546875q2.53125 0 4.03125 -1.109375q1.515625 -1.09375 1.515625 -2.453125q0 -1.234375 -0.921875 -1.703125q-0.90625 -0.46875 -2.609375 -0.46875l-3.015625 0q-0.5 0 -1.09375 -0.078125q-0.59375 -0.0625 -1.171875 -0.203125q-0.9375 0.6875 -1.375 1.4375q-0.421875 0.765625 -0.421875 1.515625q0 1.40625 1.34375 2.234375q1.34375 0.828125 3.71875 0.828125zm23.04712 -5.578125q-2.203125 0 -3.65625 -1.3125q-1.453125 -1.328125 -1.453125 -3.65625q0 -2.890625 2.5625 -4.40625q2.578125 -1.53125 8.15625 -2.15625q0 -1.109375 -0.3125 -2.109375q-0.296875 -1.015625 -1.078125 -1.640625q-0.765625 -0.640625 -2.203125 -0.640625q-1.515625 0 -2.84375 0.578125q-1.328125 0.578125 -2.375 1.296875l-1.15625 -2.046875q1.234375 -0.796875 3.015625 -1.53125q1.78125 -0.734375 3.859375 -0.734375q3.203125 0 4.640625 1.96875q1.453125 1.953125 1.453125 5.21875l0 10.734375l-2.453125 0l-0.25 -2.09375l-0.109375 0q-1.21875 1.015625 -2.6875 1.78125q-1.453125 0.75 -3.109375 0.75zm0.859375 -2.375q1.265625 0 2.375 -0.609375q1.125 -0.625 2.375 -1.734375l0 -4.859375q-4.34375 0.53125 -6.09375 1.625q-1.75 1.078125 -1.75 2.765625q0 1.46875 0.890625 2.140625q0.90625 0.671875 2.203125 0.671875zm20.159668 2.375q-2.296875 0 -4.171875 -1.078125q-1.875 -1.09375 -2.953125 -3.140625q-1.078125 -2.046875 -1.078125 -4.9375q0 -2.9375 1.171875 -4.984375q1.171875 -2.0625 3.09375 -3.140625q1.921875 -1.078125 4.15625 -1.078125q1.734375 0 2.96875 0.609375q1.25 0.609375 2.140625 1.4375l-1.5 1.9375q-0.765625 -0.671875 -1.609375 -1.109375q-0.84375 -0.4375 -1.890625 -0.4375q-1.578125 0 -2.828125 0.859375q-1.234375 0.84375 -1.9375 2.375q-0.703125 1.515625 -0.703125 3.53125q0 3.0 1.484375 4.859375q1.5 1.84375 3.90625 1.84375q1.234375 0 2.265625 -0.515625q1.046875 -0.53125 1.84375 -1.25l1.296875 1.984375q-1.1875 1.046875 -2.625 1.640625q-1.4375 0.59375 -3.03125 0.59375zm9.509766 -0.4375l0 -17.5l2.453125 0l0.25 3.171875l0.109375 0q0.890625 -1.65625 2.1875 -2.625q1.296875 -0.96875 2.78125 -0.96875q1.03125 0 1.859375 0.359375l-0.5625 2.59375q-0.4375 -0.15625 -0.796875 -0.21875q-0.359375 -0.078125 -0.90625 -0.078125q-1.109375 0 -2.328125 0.90625q-1.203125 0.890625 -2.09375 3.125l0 11.234375l-2.953125 0zm18.928894 0.4375q-2.125 0 -3.984375 -1.078125q-1.84375 -1.09375 -2.984375 -3.140625q-1.125 -2.046875 -1.125 -4.9375q0 -2.9375 1.125 -4.984375q1.140625 -2.0625 2.984375 -3.140625q1.859375 -1.078125 3.984375 -1.078125q2.171875 0 4.0 1.078125q1.84375 1.078125 2.96875 3.140625q1.140625 2.046875 1.140625 4.984375q0 2.890625 -1.140625 4.9375q-1.125 2.046875 -2.96875 3.140625q-1.828125 1.078125 -4.0 1.078125zm0 -2.453125q2.28125 0 3.65625 -1.84375q1.390625 -1.859375 1.390625 -4.859375q0 -3.015625 -1.390625 -4.890625q-1.375 -1.875 -3.65625 -1.875q-2.21875 0 -3.625 1.875q-1.40625 1.875 -1.40625 4.890625q0 3.0 1.40625 4.859375q1.40625 1.84375 3.625 1.84375zm17.293274 2.453125q-1.875 0 -3.578125 -0.703125q-1.6875 -0.703125 -2.9375 -1.71875l1.46875 -1.96875q1.15625 0.890625 2.375 1.484375q1.21875 0.59375 2.765625 0.59375q1.734375 0 2.59375 -0.796875q0.875 -0.8125 0.875 -1.9375q0 -0.90625 -0.59375 -1.515625q-0.59375 -0.609375 -1.515625 -1.015625q-0.921875 -0.421875 -1.890625 -0.78125q-1.21875 -0.46875 -2.421875 -1.0625q-1.1875 -0.59375 -1.9375 -1.546875q-0.75 -0.953125 -0.75 -2.421875q0 -2.125 1.59375 -3.546875q1.609375 -1.421875 4.453125 -1.421875q1.609375 0 3.015625 0.578125q1.40625 0.5625 2.421875 1.390625l-1.4375 1.875q-0.90625 -0.6875 -1.875 -1.109375q-0.96875 -0.4375 -2.125 -0.4375q-1.65625 0 -2.4375 0.765625q-0.765625 0.75 -0.765625 1.75q0 0.828125 0.53125 1.359375q0.546875 0.515625 1.40625 0.90625q0.859375 0.375 1.84375 0.765625q1.25 0.46875 2.46875 1.0625q1.234375 0.59375 2.046875 1.59375q0.8125 0.984375 0.8125 2.640625q0 1.390625 -0.75 2.578125q-0.734375 1.1875 -2.15625 1.921875q-1.421875 0.71875 -3.5 0.71875zm15.083984 0q-1.875 0 -3.578125 -0.703125q-1.6875 -0.703125 -2.9375 -1.71875l1.46875 -1.96875q1.15625 0.890625 2.375 1.484375q1.21875 0.59375 2.765625 0.59375q1.734375 0 2.59375 -0.796875q0.875 -0.8125 0.875 -1.9375q0 -0.90625 -0.59375 -1.515625q-0.59375 -0.609375 -1.515625 -1.015625q-0.921875 -0.421875 -1.890625 -0.78125q-1.21875 -0.46875 -2.421875 -1.0625q-1.1875 -0.59375 -1.9375 -1.546875q-0.75 -0.953125 -0.75 -2.421875q0 -2.125 1.59375 -3.546875q1.609375 -1.421875 4.453125 -1.421875q1.609375 0 3.015625 0.578125q1.40625 0.5625 2.421875 1.390625l-1.4375 1.875q-0.90625 -0.6875 -1.875 -1.109375q-0.96875 -0.4375 -2.125 -0.4375q-1.65625 0 -2.4375 0.765625q-0.765625 0.75 -0.765625 1.75q0 0.828125 0.53125 1.359375q0.546875 0.515625 1.40625 0.90625q0.859375 0.375 1.84375 0.765625q1.25 0.46875 2.46875 1.0625q1.234375 0.59375 2.046875 1.59375q0.8125 0.984375 0.8125 2.640625q0 1.390625 -0.75 2.578125q-0.734375 1.1875 -2.15625 1.921875q-1.421875 0.71875 -3.5 0.71875zm21.737122 0q-2.203125 0 -3.65625 -1.3125q-1.453125 -1.328125 -1.453125 -3.65625q0 -2.890625 2.5625 -4.40625q2.578125 -1.53125 8.15625 -2.15625q0 -1.109375 -0.3125 -2.109375q-0.296875 -1.015625 -1.078125 -1.640625q-0.765625 -0.640625 -2.203125 -0.640625q-1.515625 0 -2.84375 0.578125q-1.328125 0.578125 -2.375 1.296875l-1.15625 -2.046875q1.234375 -0.796875 3.015625 -1.53125q1.78125 -0.734375 3.859375 -0.734375q3.203125 0 4.640625 1.96875q1.453125 1.953125 1.453125 5.21875l0 10.734375l-2.453125 0l-0.25 -2.09375l-0.109375 0q-1.21875 1.015625 -2.6875 1.78125q-1.453125 0.75 -3.109375 0.75zm0.859375 -2.375q1.265625 0 2.375 -0.609375q1.125 -0.625 2.375 -1.734375l0 -4.859375q-4.34375 0.53125 -6.09375 1.625q-1.75 1.078125 -1.75 2.765625q0 1.46875 0.890625 2.140625q0.90625 0.671875 2.203125 0.671875zm16.378357 2.375q-1.65625 0 -2.390625 -1.03125q-0.734375 -1.03125 -0.734375 -2.9375l0 -22.09375l2.953125 0l0 22.3125q0 0.6875 0.25 1.0q0.25 0.296875 0.578125 0.296875q0.140625 0 0.265625 -0.015625q0.125 -0.015625 0.375 -0.0625l0.40625 2.234375q-0.296875 0.140625 -0.6875 0.21875q-0.390625 0.078125 -1.015625 0.078125zm9.180054 0q-1.65625 0 -2.390625 -1.03125q-0.734375 -1.03125 -0.734375 -2.9375l0 -22.09375l2.953125 0l0 22.3125q0 0.6875 0.25 1.0q0.25 0.296875 0.578125 0.296875q0.140625 0 0.265625 -0.015625q0.125 -0.015625 0.375 -0.0625l0.40625 2.234375q-0.296875 0.140625 -0.6875 0.21875q-0.390625 0.078125 -1.015625 0.078125z" fill-rule="nonzero"/><path fill="#000000" d="m537.3327 258.54437q-2.125 0 -3.984375 -1.078125q-1.84375 -1.09375 -2.984375 -3.140625q-1.125 -2.046875 -1.125 -4.9375q0 -2.9375 1.125 -4.984375q1.140625 -2.0625 2.984375 -3.140625q1.859375 -1.078125 3.984375 -1.078125q2.171875 0 4.0 1.078125q1.84375 1.078125 2.96875 3.140625q1.140625 2.046875 1.140625 4.984375q0 2.890625 -1.140625 4.9375q-1.125 2.046875 -2.96875 3.140625q-1.828125 1.078125 -4.0 1.078125zm0 -2.453125q2.28125 0 3.65625 -1.84375q1.390625 -1.859375 1.390625 -4.859375q0 -3.015625 -1.390625 -4.890625q-1.375 -1.875 -3.65625 -1.875q-2.21875 0 -3.625 1.875q-1.40625 1.875 -1.40625 4.890625q0 3.0 1.40625 4.859375q1.40625 1.84375 3.625 1.84375zm20.449463 2.453125q-1.21875 0 -2.53125 -0.59375q-1.3125 -0.59375 -2.46875 -1.640625l-0.109375 0l-0.25 1.796875l-2.375 0l0 -25.625l2.953125 0l0 6.984375l-0.078125 3.15625q1.1875 -1.046875 2.609375 -1.734375q1.421875 -0.703125 2.859375 -0.703125q3.421875 0 5.1875 2.40625q1.765625 2.40625 1.765625 6.484375q0 2.984375 -1.0625 5.109375q-1.0625 2.125 -2.78125 3.25q-1.703125 1.109375 -3.71875 1.109375zm-0.5 -2.484375q2.15625 0 3.578125 -1.859375q1.421875 -1.859375 1.421875 -5.09375q0 -2.875 -1.0625 -4.65625q-1.0625 -1.78125 -3.546875 -1.78125q-1.109375 0 -2.265625 0.609375q-1.15625 0.609375 -2.40625 1.765625l0 9.171875q1.15625 1.015625 2.28125 1.4375q1.140625 0.40625 2.0 0.40625zm17.25177 2.484375q-1.875 0 -3.578125 -0.703125q-1.6875 -0.703125 -2.9375 -1.71875l1.46875 -1.96875q1.15625 0.890625 2.375 1.484375q1.21875 0.59375 2.765625 0.59375q1.734375 0 2.59375 -0.796875q0.875 -0.8125 0.875 -1.9375q0 -0.90625 -0.59375 -1.515625q-0.59375 -0.609375 -1.515625 -1.015625q-0.921875 -0.421875 -1.890625 -0.78125q-1.21875 -0.46875 -2.421875 -1.0625q-1.1875 -0.59375 -1.9375 -1.546875q-0.75 -0.953125 -0.75 -2.421875q0 -2.125 1.59375 -3.546875q1.609375 -1.421875 4.453125 -1.421875q1.609375 0 3.015625 0.578125q1.40625 0.5625 2.421875 1.390625l-1.4375 1.875q-0.90625 -0.6875 -1.875 -1.109375q-0.96875 -0.4375 -2.125 -0.4375q-1.65625 0 -2.4375 0.765625q-0.765625 0.75 -0.765625 1.75q0 0.828125 0.53125 1.359375q0.546875 0.515625 1.40625 0.90625q0.859375 0.375 1.84375 0.765625q1.25 0.46875 2.46875 1.0625q1.234375 0.59375 2.046875 1.59375q0.8125 0.984375 0.8125 2.640625q0 1.390625 -0.75 2.578125q-0.734375 1.1875 -2.15625 1.921875q-1.421875 0.71875 -3.5 0.71875zm17.59961 0q-2.34375 0 -4.25 -1.09375q-1.90625 -1.109375 -3.03125 -3.15625q-1.109375 -2.0625 -1.109375 -4.90625q0 -2.875 1.125 -4.921875q1.140625 -2.0625 2.9375 -3.171875q1.8125 -1.109375 3.78125 -1.109375q3.359375 0 5.171875 2.234375q1.8125 2.21875 1.8125 5.96875q0 0.46875 -0.015625 0.921875q-0.015625 0.4375 -0.09375 0.765625l-11.796875 0q0.171875 2.78125 1.734375 4.4375q1.578125 1.65625 4.09375 1.65625q1.25 0 2.3125 -0.375q1.0625 -0.390625 2.046875 -1.0l1.03125 1.9375q-1.109375 0.734375 -2.53125 1.28125q-1.421875 0.53125 -3.21875 0.53125zm-5.515625 -10.59375l9.359375 0q0 -2.65625 -1.140625 -4.046875q-1.125 -1.390625 -3.171875 -1.390625q-1.84375 0 -3.296875 1.421875q-1.453125 1.421875 -1.75 4.015625zm16.277893 10.15625l0 -17.5l2.453125 0l0.25 3.171875l0.109375 0q0.890625 -1.65625 2.1875 -2.625q1.296875 -0.96875 2.78125 -0.96875q1.03125 0 1.859375 0.359375l-0.5625 2.59375q-0.4375 -0.15625 -0.796875 -0.21875q-0.359375 -0.078125 -0.90625 -0.078125q-1.109375 0 -2.328125 0.90625q-1.203125 0.890625 -2.09375 3.125l0 11.234375l-2.953125 0zm17.173279 0l-6.296875 -17.5l3.046875 0l3.3125 9.9375q0.40625 1.296875 0.8125 2.59375q0.421875 1.296875 0.8125 2.5625l0.140625 0q0.40625 -1.265625 0.8125 -2.5625q0.421875 -1.296875 0.78125 -2.59375l3.3125 -9.9375l2.90625 0l-6.1875 17.5l-3.453125 0zm16.34198 0.4375q-2.203125 0 -3.65625 -1.3125q-1.453125 -1.328125 -1.453125 -3.65625q0 -2.890625 2.5625 -4.40625q2.578125 -1.53125 8.15625 -2.15625q0 -1.109375 -0.3125 -2.109375q-0.296875 -1.015625 -1.078125 -1.640625q-0.765625 -0.640625 -2.203125 -0.640625q-1.515625 0 -2.84375 0.578125q-1.328125 0.578125 -2.375 1.296875l-1.15625 -2.046875q1.234375 -0.796875 3.015625 -1.53125q1.78125 -0.734375 3.859375 -0.734375q3.203125 0 4.640625 1.96875q1.453125 1.953125 1.453125 5.21875l0 10.734375l-2.453125 0l-0.25 -2.09375l-0.109375 0q-1.21875 1.015625 -2.6875 1.78125q-1.453125 0.75 -3.109375 0.75zm0.859375 -2.375q1.265625 0 2.375 -0.609375q1.125 -0.625 2.375 -1.734375l0 -4.859375q-4.34375 0.53125 -6.09375 1.625q-1.75 1.078125 -1.75 2.765625q0 1.46875 0.890625 2.140625q0.90625 0.671875 2.203125 0.671875zm18.24939 2.375q-2.796875 0 -3.90625 -1.625q-1.09375 -1.625 -1.09375 -4.21875l0 -9.671875l-2.59375 0l0 -2.234375l2.734375 -0.1875l0.359375 -4.890625l2.484375 0l0 4.890625l4.71875 0l0 2.421875l-4.71875 0l0 9.71875q0 1.609375 0.59375 2.5q0.59375 0.875 2.109375 0.875q0.46875 0 1.0 -0.15625q0.546875 -0.15625 0.984375 -0.3125l0.578125 2.234375q-0.71875 0.25 -1.578125 0.453125q-0.84375 0.203125 -1.671875 0.203125zm6.66803 -0.4375l0 -17.5l2.953125 0l0 17.5l-2.953125 0zm1.515625 -21.09375q-0.859375 0 -1.421875 -0.515625q-0.5625 -0.53125 -0.5625 -1.4375q0 -0.859375 0.5625 -1.390625q0.5625 -0.546875 1.421875 -0.546875q0.859375 0 1.421875 0.546875q0.5625 0.53125 0.5625 1.390625q0 0.90625 -0.5625 1.4375q-0.5625 0.515625 -1.421875 0.515625zm14.137207 21.53125q-2.125 0 -3.984375 -1.078125q-1.84375 -1.09375 -2.984375 -3.140625q-1.125 -2.046875 -1.125 -4.9375q0 -2.9375 1.125 -4.984375q1.140625 -2.0625 2.984375 -3.140625q1.859375 -1.078125 3.984375 -1.078125q2.171875 0 4.0 1.078125q1.84375 1.078125 2.96875 3.140625q1.140625 2.046875 1.140625 4.984375q0 2.890625 -1.140625 4.9375q-1.125 2.046875 -2.96875 3.140625q-1.828125 1.078125 -4.0 1.078125zm0 -2.453125q2.28125 0 3.65625 -1.84375q1.390625 -1.859375 1.390625 -4.859375q0 -3.015625 -1.390625 -4.890625q-1.375 -1.875 -3.65625 -1.875q-2.21875 0 -3.625 1.875q-1.40625 1.875 -1.40625 4.890625q0 3.0 1.40625 4.859375q1.40625 1.84375 3.625 1.84375zm12.715149 2.015625l0 -17.5l2.453125 0l0.25 2.53125l0.109375 0q1.25 -1.265625 2.65625 -2.109375q1.40625 -0.84375 3.203125 -0.84375q2.78125 0 4.046875 1.75q1.28125 1.734375 1.28125 5.078125l0 11.09375l-2.953125 0l0 -10.6875q0 -2.453125 -0.796875 -3.5625q-0.78125 -1.125 -2.515625 -1.125q-1.328125 0 -2.390625 0.6875q-1.0625 0.6875 -2.390625 2.015625l0 12.671875l-2.953125 0zm24.270142 0.4375q-1.875 0 -3.578125 -0.703125q-1.6875 -0.703125 -2.9375 -1.71875l1.46875 -1.96875q1.15625 0.890625 2.375 1.484375q1.21875 0.59375 2.765625 0.59375q1.734375 0 2.59375 -0.796875q0.875 -0.8125 0.875 -1.9375q0 -0.90625 -0.59375 -1.515625q-0.59375 -0.609375 -1.515625 -1.015625q-0.921875 -0.421875 -1.890625 -0.78125q-1.21875 -0.46875 -2.421875 -1.0625q-1.1875 -0.59375 -1.9375 -1.546875q-0.75 -0.953125 -0.75 -2.421875q0 -2.125 1.59375 -3.546875q1.609375 -1.421875 4.453125 -1.421875q1.609375 0 3.015625 0.578125q1.40625 0.5625 2.421875 1.390625l-1.4375 1.875q-0.90625 -0.6875 -1.875 -1.109375q-0.96875 -0.4375 -2.125 -0.4375q-1.65625 0 -2.4375 0.765625q-0.765625 0.75 -0.765625 1.75q0 0.828125 0.53125 1.359375q0.546875 0.515625 1.40625 0.90625q0.859375 0.375 1.84375 0.765625q1.25 0.46875 2.46875 1.0625q1.234375 0.59375 2.046875 1.59375q0.8125 0.984375 0.8125 2.640625q0 1.390625 -0.75 2.578125q-0.734375 1.1875 -2.15625 1.921875q-1.421875 0.71875 -3.5 0.71875zm25.440247 0q-1.21875 0 -2.53125 -0.59375q-1.3125 -0.59375 -2.46875 -1.640625l-0.109375 0l-0.25 1.796875l-2.375 0l0 -25.625l2.953125 0l0 6.984375l-0.078125 3.15625q1.1875 -1.046875 2.609375 -1.734375q1.421875 -0.703125 2.859375 -0.703125q3.421875 0 5.1875 2.40625q1.765625 2.40625 1.765625 6.484375q0 2.984375 -1.0625 5.109375q-1.0625 2.125 -2.78125 3.25q-1.703125 1.109375 -3.71875 1.109375zm-0.5 -2.484375q2.15625 0 3.578125 -1.859375q1.421875 -1.859375 1.421875 -5.09375q0 -2.875 -1.0625 -4.65625q-1.0625 -1.78125 -3.546875 -1.78125q-1.109375 0 -2.265625 0.609375q-1.15625 0.609375 -2.40625 1.765625l0 9.171875q1.15625 1.015625 2.28125 1.4375q1.140625 0.40625 2.0 0.40625zm17.78302 2.484375q-2.765625 0 -4.0625 -1.75q-1.296875 -1.75 -1.296875 -5.09375l0 -11.09375l2.984375 0l0 10.703125q0 2.4375 0.765625 3.5625q0.78125 1.109375 2.515625 1.109375q1.359375 0 2.421875 -0.703125q1.0625 -0.703125 2.296875 -2.25l0 -12.421875l2.9375 0l0 17.5l-2.4375 0l-0.25 -2.734375l-0.109375 0q-1.234375 1.4375 -2.609375 2.3125q-1.359375 0.859375 -3.15625 0.859375zm19.97461 0q-2.796875 0 -3.90625 -1.625q-1.09375 -1.625 -1.09375 -4.21875l0 -9.671875l-2.59375 0l0 -2.234375l2.734375 -0.1875l0.359375 -4.890625l2.484375 0l0 4.890625l4.71875 0l0 2.421875l-4.71875 0l0 9.71875q0 1.609375 0.59375 2.5q0.59375 0.875 2.109375 0.875q0.46875 0 1.0 -0.15625q0.546875 -0.15625 0.984375 -0.3125l0.578125 2.234375q-0.71875 0.25 -1.578125 0.453125q-0.84375 0.203125 -1.671875 0.203125zm20.664917 0q-2.125 0 -3.984375 -1.078125q-1.84375 -1.09375 -2.984375 -3.140625q-1.125 -2.046875 -1.125 -4.9375q0 -2.9375 1.125 -4.984375q1.140625 -2.0625 2.984375 -3.140625q1.859375 -1.078125 3.984375 -1.078125q2.171875 0 4.0 1.078125q1.84375 1.078125 2.96875 3.140625q1.140625 2.046875 1.140625 4.984375q0 2.890625 -1.140625 4.9375q-1.125 2.046875 -2.96875 3.140625q-1.828125 1.078125 -4.0 1.078125zm0 -2.453125q2.28125 0 3.65625 -1.84375q1.390625 -1.859375 1.390625 -4.859375q0 -3.015625 -1.390625 -4.890625q-1.375 -1.875 -3.65625 -1.875q-2.21875 0 -3.625 1.875q-1.40625 1.875 -1.40625 4.890625q0 3.0 1.40625 4.859375q1.40625 1.84375 3.625 1.84375zm12.715149 2.015625l0 -17.5l2.453125 0l0.25 2.53125l0.109375 0q1.25 -1.265625 2.65625 -2.109375q1.40625 -0.84375 3.203125 -0.84375q2.78125 0 4.046875 1.75q1.28125 1.734375 1.28125 5.078125l0 11.09375l-2.953125 0l0 -10.6875q0 -2.453125 -0.796875 -3.5625q-0.78125 -1.125 -2.515625 -1.125q-1.328125 0 -2.390625 0.6875q-1.0625 0.6875 -2.390625 2.015625l0 12.671875l-2.953125 0zm22.817017 0.4375q-1.65625 0 -2.390625 -1.03125q-0.734375 -1.03125 -0.734375 -2.9375l0 -22.09375l2.953125 0l0 22.3125q0 0.6875 0.25 1.0q0.25 0.296875 0.578125 0.296875q0.140625 0 0.265625 -0.015625q0.125 -0.015625 0.375 -0.0625l0.40625 2.234375q-0.296875 0.140625 -0.6875 0.21875q-0.390625 0.078125 -1.015625 0.078125zm6.3362427 7.09375q-0.578125 0 -1.09375 -0.109375q-0.515625 -0.109375 -0.953125 -0.265625l0.578125 -2.328125q0.28125 0.0625 0.640625 0.15625q0.359375 0.09375 0.6875 0.09375q1.484375 0 2.453125 -1.0625q0.96875 -1.0625 1.515625 -2.6875l0.390625 -1.296875l-7.015625 -17.53125l3.046875 0l3.578125 9.6875q0.390625 1.109375 0.84375 2.40625q0.453125 1.296875 0.84375 2.53125l0.140625 0q0.390625 -1.1875 0.75 -2.484375q0.375 -1.296875 0.734375 -2.453125l3.125 -9.6875l2.875 0l-6.578125 18.9375q-0.609375 1.734375 -1.46875 3.09375q-0.84375 1.375 -2.09375 2.1875q-1.234375 0.8125 -3.0 0.8125z" fill-rule="nonzero"/><path fill="#000000" d="m533.30145 307.78687l-4.859375 -17.5l3.03125 0l2.59375 10.125q0.28125 1.21875 0.53125 2.421875q0.25 1.203125 0.515625 2.4375l0.140625 0q0.28125 -1.234375 0.5625 -2.4375q0.296875 -1.203125 0.625 -2.421875l2.703125 -10.125l2.875 0l2.734375 10.125q0.328125 1.21875 0.625 2.421875q0.3125 1.203125 0.59375 2.4375l0.15625 0q0.28125 -1.234375 0.546875 -2.4375q0.28125 -1.203125 0.53125 -2.421875l2.546875 -10.125l2.8125 0l-4.6875 17.5l-3.59375 0l-2.515625 -9.390625q-0.328125 -1.265625 -0.609375 -2.484375q-0.265625 -1.234375 -0.578125 -2.5625l-0.140625 0q-0.296875 1.328125 -0.59375 2.578125q-0.28125 1.234375 -0.640625 2.5l-2.4375 9.359375l-3.46875 0zm23.082336 0l0 -17.5l2.953125 0l0 17.5l-2.953125 0zm1.515625 -21.09375q-0.859375 0 -1.421875 -0.515625q-0.5625 -0.53125 -0.5625 -1.4375q0 -0.859375 0.5625 -1.390625q0.5625 -0.546875 1.421875 -0.546875q0.859375 0 1.421875 0.546875q0.5625 0.53125 0.5625 1.390625q0 0.90625 -0.5625 1.4375q-0.5625 0.515625 -1.421875 0.515625zm12.840393 21.53125q-2.796875 0 -3.90625 -1.625q-1.09375 -1.625 -1.09375 -4.21875l0 -9.671875l-2.59375 0l0 -2.234375l2.734375 -0.1875l0.359375 -4.890625l2.484375 0l0 4.890625l4.71875 0l0 2.421875l-4.71875 0l0 9.71875q0 1.609375 0.59375 2.5q0.59375 0.875 2.109375 0.875q0.46875 0 1.0 -0.15625q0.546875 -0.15625 0.984375 -0.3125l0.578125 2.234375q-0.71875 0.25 -1.578125 0.453125q-0.84375 0.203125 -1.671875 0.203125zm6.66803 -0.4375l0 -25.625l2.953125 0l0 6.984375l-0.109375 3.59375q1.265625 -1.1875 2.640625 -2.03125q1.390625 -0.84375 3.1875 -0.84375q2.78125 0 4.046875 1.75q1.28125 1.734375 1.28125 5.078125l0 11.09375l-2.953125 0l0 -10.6875q0 -2.453125 -0.796875 -3.5625q-0.78125 -1.125 -2.515625 -1.125q-1.328125 0 -2.390625 0.6875q-1.0625 0.6875 -2.390625 2.015625l0 12.671875l-2.953125 0zm19.583984 0l0 -17.5l2.953125 0l0 17.5l-2.953125 0zm1.515625 -21.09375q-0.859375 0 -1.421875 -0.515625q-0.5625 -0.53125 -0.5625 -1.4375q0 -0.859375 0.5625 -1.390625q0.5625 -0.546875 1.421875 -0.546875q0.859375 0 1.421875 0.546875q0.5625 0.53125 0.5625 1.390625q0 0.90625 -0.5625 1.4375q-0.5625 0.515625 -1.421875 0.515625zm7.340393 21.09375l0 -17.5l2.453125 0l0.25 2.53125l0.109375 0q1.25 -1.265625 2.65625 -2.109375q1.40625 -0.84375 3.203125 -0.84375q2.78125 0 4.046875 1.75q1.28125 1.734375 1.28125 5.078125l0 11.09375l-2.953125 0l0 -10.6875q0 -2.453125 -0.796875 -3.5625q-0.78125 -1.125 -2.515625 -1.125q-1.328125 0 -2.390625 0.6875q-1.0625 0.6875 -2.390625 2.015625l0 12.671875l-2.953125 0zm31.470093 0.4375q-1.875 0 -3.578125 -0.703125q-1.6875 -0.703125 -2.9375 -1.71875l1.46875 -1.96875q1.15625 0.890625 2.375 1.484375q1.21875 0.59375 2.765625 0.59375q1.734375 0 2.59375 -0.796875q0.875 -0.8125 0.875 -1.9375q0 -0.90625 -0.59375 -1.515625q-0.59375 -0.609375 -1.515625 -1.015625q-0.921875 -0.421875 -1.890625 -0.78125q-1.21875 -0.46875 -2.421875 -1.0625q-1.1875 -0.59375 -1.9375 -1.546875q-0.75 -0.953125 -0.75 -2.421875q0 -2.125 1.59375 -3.546875q1.609375 -1.421875 4.453125 -1.421875q1.609375 0 3.015625 0.578125q1.40625 0.5625 2.421875 1.390625l-1.4375 1.875q-0.90625 -0.6875 -1.875 -1.109375q-0.96875 -0.4375 -2.125 -0.4375q-1.65625 0 -2.4375 0.765625q-0.765625 0.75 -0.765625 1.75q0 0.828125 0.53125 1.359375q0.546875 0.515625 1.40625 0.90625q0.859375 0.375 1.84375 0.765625q1.25 0.46875 2.46875 1.0625q1.234375 0.59375 2.046875 1.59375q0.8125 0.984375 0.8125 2.640625q0 1.390625 -0.75 2.578125q-0.734375 1.1875 -2.15625 1.921875q-1.421875 0.71875 -3.5 0.71875zm15.615295 0q-2.765625 0 -4.0625 -1.75q-1.296875 -1.75 -1.296875 -5.09375l0 -11.09375l2.984375 0l0 10.703125q0 2.4375 0.765625 3.5625q0.78125 1.109375 2.515625 1.109375q1.359375 0 2.421875 -0.703125q1.0625 -0.703125 2.296875 -2.25l0 -12.421875l2.9375 0l0 17.5l-2.4375 0l-0.25 -2.734375l-0.109375 0q-1.234375 1.4375 -2.609375 2.3125q-1.359375 0.859375 -3.15625 0.859375zm22.208984 0q-1.21875 0 -2.53125 -0.59375q-1.3125 -0.59375 -2.46875 -1.640625l-0.109375 0l-0.25 1.796875l-2.375 0l0 -25.625l2.953125 0l0 6.984375l-0.078125 3.15625q1.1875 -1.046875 2.609375 -1.734375q1.421875 -0.703125 2.859375 -0.703125q3.421875 0 5.1875 2.40625q1.765625 2.40625 1.765625 6.484375q0 2.984375 -1.0625 5.109375q-1.0625 2.125 -2.78125 3.25q-1.703125 1.109375 -3.71875 1.109375zm-0.5 -2.484375q2.15625 0 3.578125 -1.859375q1.421875 -1.859375 1.421875 -5.09375q0 -2.875 -1.0625 -4.65625q-1.0625 -1.78125 -3.546875 -1.78125q-1.109375 0 -2.265625 0.609375q-1.15625 0.609375 -2.40625 1.765625l0 9.171875q1.15625 1.015625 2.28125 1.4375q1.140625 0.40625 2.0 0.40625zm11.405273 -5.84375l0 -2.265625l8.28125 0l0 2.265625l-8.28125 0zm17.258484 8.328125q-1.875 0 -3.578125 -0.703125q-1.6875 -0.703125 -2.9375 -1.71875l1.46875 -1.96875q1.15625 0.890625 2.375 1.484375q1.21875 0.59375 2.765625 0.59375q1.734375 0 2.59375 -0.796875q0.875 -0.8125 0.875 -1.9375q0 -0.90625 -0.59375 -1.515625q-0.59375 -0.609375 -1.515625 -1.015625q-0.921875 -0.421875 -1.890625 -0.78125q-1.21875 -0.46875 -2.421875 -1.0625q-1.1875 -0.59375 -1.9375 -1.546875q-0.75 -0.953125 -0.75 -2.421875q0 -2.125 1.59375 -3.546875q1.609375 -1.421875 4.453125 -1.421875q1.609375 0 3.015625 0.578125q1.40625 0.5625 2.421875 1.390625l-1.4375 1.875q-0.90625 -0.6875 -1.875 -1.109375q-0.96875 -0.4375 -2.125 -0.4375q-1.65625 0 -2.4375 0.765625q-0.765625 0.75 -0.765625 1.75q0 0.828125 0.53125 1.359375q0.546875 0.515625 1.40625 0.90625q0.859375 0.375 1.84375 0.765625q1.25 0.46875 2.46875 1.0625q1.234375 0.59375 2.046875 1.59375q0.8125 0.984375 0.8125 2.640625q0 1.390625 -0.75 2.578125q-0.734375 1.1875 -2.15625 1.921875q-1.421875 0.71875 -3.5 0.71875zm14.537109 0q-2.203125 0 -3.65625 -1.3125q-1.453125 -1.328125 -1.453125 -3.65625q0 -2.890625 2.5625 -4.40625q2.578125 -1.53125 8.15625 -2.15625q0 -1.109375 -0.3125 -2.109375q-0.296875 -1.015625 -1.078125 -1.640625q-0.765625 -0.640625 -2.203125 -0.640625q-1.515625 0 -2.84375 0.578125q-1.328125 0.578125 -2.375 1.296875l-1.15625 -2.046875q1.234375 -0.796875 3.015625 -1.53125q1.78125 -0.734375 3.859375 -0.734375q3.203125 0 4.640625 1.96875q1.453125 1.953125 1.453125 5.21875l0 10.734375l-2.453125 0l-0.25 -2.09375l-0.109375 0q-1.21875 1.015625 -2.6875 1.78125q-1.453125 0.75 -3.109375 0.75zm0.859375 -2.375q1.265625 0 2.375 -0.609375q1.125 -0.625 2.375 -1.734375l0 -4.859375q-4.34375 0.53125 -6.09375 1.625q-1.75 1.078125 -1.75 2.765625q0 1.46875 0.890625 2.140625q0.90625 0.671875 2.203125 0.671875zm13.253418 1.9375l0 -17.5l2.453125 0l0.25 2.53125l0.109375 0q1.140625 -1.265625 2.5 -2.109375q1.375 -0.84375 2.9375 -0.84375q2.015625 0 3.140625 0.890625q1.140625 0.875 1.671875 2.453125q1.375 -1.484375 2.78125 -2.40625q1.40625 -0.9375 2.984375 -0.9375q2.703125 0 4.015625 1.75q1.3125 1.734375 1.3125 5.078125l0 11.09375l-2.953125 0l0 -10.6875q0 -2.453125 -0.796875 -3.5625q-0.78125 -1.125 -2.4375 -1.125q-1.953125 0 -4.390625 2.703125l0 12.671875l-2.953125 0l0 -10.6875q0 -2.453125 -0.796875 -3.5625q-0.796875 -1.125 -2.484375 -1.125q-1.9375 0 -4.390625 2.703125l0 12.671875l-2.953125 0zm29.843994 7.375l0 -24.875l2.453125 0l0.25 2.015625l0.109375 0q1.1875 -1.0 2.609375 -1.71875q1.421875 -0.71875 2.96875 -0.71875q3.375 0 5.140625 2.4375q1.765625 2.421875 1.765625 6.484375q0 2.953125 -1.0625 5.078125q-1.0625 2.125 -2.78125 3.25q-1.703125 1.109375 -3.71875 1.109375q-1.21875 0 -2.421875 -0.53125q-1.203125 -0.546875 -2.4375 -1.484375l0.078125 3.046875l0 5.90625l-2.953125 0zm7.234375 -9.421875q2.15625 0 3.578125 -1.859375q1.421875 -1.859375 1.421875 -5.09375q0 -2.875 -1.0625 -4.65625q-1.0625 -1.78125 -3.546875 -1.78125q-1.109375 0 -2.25 0.609375q-1.125 0.609375 -2.421875 1.765625l0 9.171875q1.1875 1.015625 2.296875 1.4375q1.125 0.40625 1.984375 0.40625zm15.8706665 2.484375q-1.65625 0 -2.390625 -1.03125q-0.734375 -1.03125 -0.734375 -2.9375l0 -22.09375l2.953125 0l0 22.3125q0 0.6875 0.25 1.0q0.25 0.296875 0.578125 0.296875q0.140625 0 0.265625 -0.015625q0.125 -0.015625 0.375 -0.0625l0.40625 2.234375q-0.296875 0.140625 -0.6875 0.21875q-0.390625 0.078125 -1.015625 0.078125zm13.148743 0q-2.34375 0 -4.25 -1.09375q-1.90625 -1.109375 -3.03125 -3.15625q-1.109375 -2.0625 -1.109375 -4.90625q0 -2.875 1.125 -4.921875q1.140625 -2.0625 2.9375 -3.171875q1.8125 -1.109375 3.78125 -1.109375q3.359375 0 5.171875 2.234375q1.8125 2.21875 1.8125 5.96875q0 0.46875 -0.015625 0.921875q-0.015625 0.4375 -0.09375 0.765625l-11.796875 0q0.171875 2.78125 1.734375 4.4375q1.578125 1.65625 4.09375 1.65625q1.25 0 2.3125 -0.375q1.0625 -0.390625 2.046875 -1.0l1.03125 1.9375q-1.109375 0.734375 -2.53125 1.28125q-1.421875 0.53125 -3.21875 0.53125zm-5.515625 -10.59375l9.359375 0q0 -2.65625 -1.140625 -4.046875q-1.125 -1.390625 -3.171875 -1.390625q-1.84375 0 -3.296875 1.421875q-1.453125 1.421875 -1.75 4.015625zm20.856018 10.59375q-1.875 0 -3.578125 -0.703125q-1.6875 -0.703125 -2.9375 -1.71875l1.46875 -1.96875q1.15625 0.890625 2.375 1.484375q1.21875 0.59375 2.765625 0.59375q1.734375 0 2.59375 -0.796875q0.875 -0.8125 0.875 -1.9375q0 -0.90625 -0.59375 -1.515625q-0.59375 -0.609375 -1.515625 -1.015625q-0.921875 -0.421875 -1.890625 -0.78125q-1.21875 -0.46875 -2.421875 -1.0625q-1.1875 -0.59375 -1.9375 -1.546875q-0.75 -0.953125 -0.75 -2.421875q0 -2.125 1.59375 -3.546875q1.609375 -1.421875 4.453125 -1.421875q1.609375 0 3.015625 0.578125q1.40625 0.5625 2.421875 1.390625l-1.4375 1.875q-0.90625 -0.6875 -1.875 -1.109375q-0.96875 -0.4375 -2.125 -0.4375q-1.65625 0 -2.4375 0.765625q-0.765625 0.75 -0.765625 1.75q0 0.828125 0.53125 1.359375q0.546875 0.515625 1.40625 0.90625q0.859375 0.375 1.84375 0.765625q1.25 0.46875 2.46875 1.0625q1.234375 0.59375 2.046875 1.59375q0.8125 0.984375 0.8125 2.640625q0 1.390625 -0.75 2.578125q-0.734375 1.1875 -2.15625 1.921875q-1.421875 0.71875 -3.5 0.71875zm24.502747 0q-2.125 0 -3.984375 -1.078125q-1.84375 -1.09375 -2.984375 -3.140625q-1.125 -2.046875 -1.125 -4.9375q0 -2.9375 1.125 -4.984375q1.140625 -2.0625 2.984375 -3.140625q1.859375 -1.078125 3.984375 -1.078125q2.171875 0 4.0 1.078125q1.84375 1.078125 2.96875 3.140625q1.140625 2.046875 1.140625 4.984375q0 2.890625 -1.140625 4.9375q-1.125 2.046875 -2.96875 3.140625q-1.828125 1.078125 -4.0 1.078125zm0 -2.453125q2.28125 0 3.65625 -1.84375q1.390625 -1.859375 1.390625 -4.859375q0 -3.015625 -1.390625 -4.890625q-1.375 -1.875 -3.65625 -1.875q-2.21875 0 -3.625 1.875q-1.40625 1.875 -1.40625 4.890625q0 3.0 1.40625 4.859375q1.40625 1.84375 3.625 1.84375zm13.215149 2.015625l0 -15.078125l-2.375 0l0 -2.234375l2.375 -0.1875l0 -2.765625q0 -2.671875 1.234375 -4.234375q1.25 -1.5625 3.875 -1.5625q0.828125 0 1.578125 0.171875q0.765625 0.15625 1.34375 0.40625l-0.640625 2.265625q-0.984375 -0.4375 -1.984375 -0.4375q-2.453125 0 -2.453125 3.390625l0 2.765625l3.703125 0l0 2.421875l-3.703125 0l0 15.078125l-2.953125 0z" fill-rule="nonzero"/><path fill="#000000" d="m536.5046 357.90436q-3.265625 0 -5.25 -2.390625q-1.984375 -2.40625 -1.984375 -6.765625q0 -2.84375 1.0625 -4.90625q1.0625 -2.078125 2.8125 -3.1875q1.75 -1.109375 3.71875 -1.109375q1.515625 0 2.625 0.546875q1.125 0.53125 2.28125 1.46875l-0.140625 -3.0l0 -6.71875l2.984375 0l0 25.625l-2.453125 0l-0.25 -2.046875l-0.109375 0q-1.0 1.0 -2.375 1.75q-1.375 0.734375 -2.921875 0.734375zm0.65625 -2.484375q2.296875 0 4.46875 -2.421875l0 -9.140625q-1.125 -1.0 -2.15625 -1.40625q-1.015625 -0.421875 -2.09375 -0.421875q-1.40625 0 -2.546875 0.84375q-1.125 0.84375 -1.8125 2.34375q-0.6875 1.484375 -0.6875 3.5q0 3.140625 1.25 4.921875q1.265625 1.78125 3.578125 1.78125zm17.38623 2.484375q-2.203125 0 -3.65625 -1.3125q-1.453125 -1.328125 -1.453125 -3.65625q0 -2.890625 2.5625 -4.40625q2.578125 -1.53125 8.15625 -2.15625q0 -1.109375 -0.3125 -2.109375q-0.296875 -1.015625 -1.078125 -1.640625q-0.765625 -0.640625 -2.203125 -0.640625q-1.515625 0 -2.84375 0.578125q-1.328125 0.578125 -2.375 1.296875l-1.15625 -2.046875q1.234375 -0.796875 3.015625 -1.53125q1.78125 -0.734375 3.859375 -0.734375q3.203125 0 4.640625 1.96875q1.453125 1.953125 1.453125 5.21875l0 10.734375l-2.453125 0l-0.25 -2.09375l-0.109375 0q-1.21875 1.015625 -2.6875 1.78125q-1.453125 0.75 -3.109375 0.75zm0.859375 -2.375q1.265625 0 2.375 -0.609375q1.125 -0.625 2.375 -1.734375l0 -4.859375q-4.34375 0.53125 -6.09375 1.625q-1.75 1.078125 -1.75 2.765625q0 1.46875 0.890625 2.140625q0.90625 0.671875 2.203125 0.671875zm18.24939 2.375q-2.796875 0 -3.90625 -1.625q-1.09375 -1.625 -1.09375 -4.21875l0 -9.671875l-2.59375 0l0 -2.234375l2.734375 -0.1875l0.359375 -4.890625l2.484375 0l0 4.890625l4.71875 0l0 2.421875l-4.71875 0l0 9.71875q0 1.609375 0.59375 2.5q0.59375 0.875 2.109375 0.875q0.46875 0 1.0 -0.15625q0.546875 -0.15625 0.984375 -0.3125l0.578125 2.234375q-0.71875 0.25 -1.578125 0.453125q-0.84375 0.203125 -1.671875 0.203125zm9.943237 0q-2.203125 0 -3.65625 -1.3125q-1.453125 -1.328125 -1.453125 -3.65625q0 -2.890625 2.5625 -4.40625q2.578125 -1.53125 8.15625 -2.15625q0 -1.109375 -0.3125 -2.109375q-0.296875 -1.015625 -1.078125 -1.640625q-0.765625 -0.640625 -2.203125 -0.640625q-1.515625 0 -2.84375 0.578125q-1.328125 0.578125 -2.375 1.296875l-1.15625 -2.046875q1.234375 -0.796875 3.015625 -1.53125q1.78125 -0.734375 3.859375 -0.734375q3.203125 0 4.640625 1.96875q1.453125 1.953125 1.453125 5.21875l0 10.734375l-2.453125 0l-0.25 -2.09375l-0.109375 0q-1.21875 1.015625 -2.6875 1.78125q-1.453125 0.75 -3.109375 0.75zm0.859375 -2.375q1.265625 0 2.375 -0.609375q1.125 -0.625 2.375 -1.734375l0 -4.859375q-4.34375 0.53125 -6.09375 1.625q-1.75 1.078125 -1.75 2.765625q0 1.46875 0.890625 2.140625q0.90625 0.671875 2.203125 0.671875zm14.800293 2.375q-0.90625 0 -1.53125 -0.625q-0.625 -0.640625 -0.625 -1.609375q0 -1.046875 0.625 -1.671875q0.625 -0.640625 1.53125 -0.640625q0.859375 0 1.484375 0.640625q0.640625 0.625 0.640625 1.671875q0 0.96875 -0.640625 1.609375q-0.625 0.625 -1.484375 0.625z" fill-rule="nonzero"/></g></svg>